<?xml version="1.0" encoding="UTF-8" standalone="no"?>
<!-- Created with Inkscape (http://www.inkscape.org/) -->

<svg
   width="54.317745mm"
   height="54.317745mm"
   viewBox="0 0 54.317746 54.317746"
   version="1.1"
   id="svg1"
   sodipodi:docname="hiocr.svg"
   inkscape:version="1.4.3 (0d15f75042, 2025-12-25)"
   xmlns:inkscape="http://www.inkscape.org/namespaces/inkscape"
   xmlns:sodipodi="http://sodipodi.sourceforge.net/DTD/sodipodi-0.dtd"
   xmlns="http://www.w3.org/2000/svg"
   xmlns:svg="http://www.w3.org/2000/svg">
  <sodipodi:namedview
     id="namedview1"
     pagecolor="#ffffff"
     bordercolor="#000000"
     borderopacity="0.25"
     inkscape:showpageshadow="2"
     inkscape:pageopacity="0.0"
     inkscape:pagecheckerboard="0"
     inkscape:deskcolor="#d1d1d1"
     inkscape:document-units="mm"
     inkscape:zoom="2.34394"
     inkscape:cx="115.19066"
     inkscape:cy="100.68517"
     inkscape:window-width="1707"
     inkscape:window-height="1039"
     inkscape:window-x="0"
     inkscape:window-y="0"
     inkscape:window-maximized="1"
     inkscape:current-layer="layer1" />
  <defs
     id="defs1" />
  <g
     inkscape:label="Layer 1"
     inkscape:groupmode="layer"
     id="layer1"
     transform="translate(-39.370129,-30.674477)">
    <rect
       style="opacity:1;fill:#0f5f66;fill-opacity:1;stroke:none;stroke-width:0.228;stroke-dasharray:none;stroke-opacity:1"
       id="rect13"
       width="54.318001"
       height="54.317745"
       x="39.370129"
       y="30.674477"
       rx="5.5999999"
       ry="5.5999999" />
    <g
       id="g2"
       transform="matrix(1.6663384,0,0,1.6663384,12.078893,31.662614)"
       style="opacity:1;fill:#ffffff;fill-opacity:1">
      <defs
         id="defs2" />
      <g
         id="g1"
         style="fill:#ffffff;fill-opacity:1">
        <path
           id="path2"
           d="m 35.269297,7.9772002 c 0,-1.0518677 0.0594,-1.3720515 2.304803,-1.3720515 h 0.699779 V 5.6996173 c -1.019966,0.08692 -3.17843,0.08692 -4.28503,0.08692 -1.11128,0 -3.296965,0 -4.316931,-0.08692 v 0.9055314 h 0.699783 c 2.245389,0 2.3048,0.3201838 2.3048,1.3720515 V 14.800001 H 23.955713 V 7.9772002 c 0,-1.0518677 0.0594,-1.3720515 2.304804,-1.3720515 h 0.699779 V 5.6996173 c -1.019964,0.08692 -3.17843,0.08692 -4.289712,0.08692 -1.106598,0 -3.292575,0 -4.316932,-0.08692 v 0.9055314 h 0.704466 c 2.245097,0 2.300117,0.3201838 2.300117,1.3720515 V 23.346944 c 0,1.047185 -0.05503,1.367368 -2.300117,1.367368 h -0.704466 v 0.905534 c 1.024357,-0.08691 3.182822,-0.08691 4.289713,-0.08691 1.1066,0 3.296967,0 4.316931,0.08691 v -0.905534 h -0.699779 c -2.245392,0 -2.304804,-0.320183 -2.304804,-1.367368 v -7.641409 h 8.720788 v 7.641409 c 0,1.047185 -0.0594,1.367368 -2.3048,1.367368 h -0.699783 v 0.905534 c 1.019966,-0.08691 3.178433,-0.08691 4.28503,-0.08691 1.11128,0 3.296965,0 4.316931,0.08691 V 24.714312 H 37.5741 c -2.245392,0 -2.304803,-0.320183 -2.304803,-1.367368 V 7.9772002"
           style="fill:#ffffff;fill-opacity:1;fill-rule:nonzero;stroke:none;stroke-width:0.292675" />
        <path
           id="path3"
           d="m 44.214273,12.728461 -4.083671,0.320184 v 0.905531 c 1.893012,0 2.158465,0.173553 2.158465,1.605021 v 7.84277 c 0,1.312345 -0.320185,1.312345 -2.277586,1.312345 v 0.905534 c 0.937435,-0.02752 2.510554,-0.08691 3.210337,-0.08691 1.019673,0 2.039641,0.05942 3.031805,0.08691 v -0.905534 c -1.925206,0 -2.03935,-0.146342 -2.03935,-1.280443 z m 0.114173,-5.0714448 c 0,-0.9374326 -0.727003,-1.5456078 -1.545608,-1.5456078 -0.90085,0 -1.54561,0.7864129 -1.54561,1.5456078 0,0.7864131 0.64476,1.5456081 1.54561,1.5456081 0.818605,0 1.545608,-0.6128587 1.545608,-1.5456081"
           style="fill:#ffffff;fill-opacity:1;fill-rule:nonzero;stroke:none;stroke-width:0.292675" />
      </g>
    </g>
  </g>
</svg>
