<?xml version="1.0" encoding="UTF-8" standalone="no"?>
<!-- Created with Inkscape (http://www.inkscape.org/) -->

<svg
   width="54.317745mm"
   height="54.317745mm"
   viewBox="0 0 54.317746 54.317746"
   version="1.1"
   id="svg1"
   sodipodi:docname="drawing.svg"
   inkscape:version="1.4.3 (0d15f75042, 2025-12-25)"
   xmlns:inkscape="http://www.inkscape.org/namespaces/inkscape"
   xmlns:sodipodi="http://sodipodi.sourceforge.net/DTD/sodipodi-0.dtd"
   xmlns="http://www.w3.org/2000/svg"
   xmlns:svg="http://www.w3.org/2000/svg">
  <sodipodi:namedview
     id="namedview1"
     pagecolor="#ffffff"
     bordercolor="#000000"
     borderopacity="0.25"
     inkscape:showpageshadow="2"
     inkscape:pageopacity="0.0"
     inkscape:pagecheckerboard="0"
     inkscape:deskcolor="#d1d1d1"
     inkscape:document-units="mm"
     inkscape:zoom="2.34394"
     inkscape:cx="115.19066"
     inkscape:cy="100.25854"
     inkscape:window-width="1707"
     inkscape:window-height="1039"
     inkscape:window-x="0"
     inkscape:window-y="0"
     inkscape:window-maximized="1"
     inkscape:current-layer="layer1" />
  <defs
     id="defs1" />
  <g
     inkscape:label="Layer 1"
     inkscape:groupmode="layer"
     id="layer1"
     transform="translate(-39.370129,-30.674477)">
    <rect
       style="opacity:0.714298;fill:#155e5d;fill-opacity:1;stroke:none;stroke-width:0.228;stroke-dasharray:none;stroke-opacity:1"
       id="rect13"
       width="54.318001"
       height="54.317745"
       x="39.370129"
       y="30.674477"
       rx="5.5999999"
       ry="5.5999999" />
    <g
       id="g2"
       transform="translate(42.095989,42.438034)"
       style="opacity:1;fill:#ffffff;fill-opacity:1">
      <defs
         id="defs2" />
      <g
         id="g1"
         style="fill:#ffffff;fill-opacity:1">
        <path
           id="path1"
           d="m 2.1615669,30.125 c 0.425,-0.02708 0.6520827,-0.31875 0.6520827,-0.652084 0,-0.437502 -0.3333333,-0.649996 -0.6375,-0.649996 -0.3187493,0 -0.6520833,0.197907 -0.6520833,0.66458 0,0.677083 0.6645833,1.235417 1.4749966,1.235417 2.01876,0 2.7770933,-3.110423 3.7208399,-6.962503 1.02292,-4.19792 1.8854133,-8.43748 2.60416,-12.702147 0.4916666,-2.8290661 0.9833332,-5.487466 1.4333332,-7.2019993 0.160427,-0.65 0.612507,-2.3646666 1.131254,-2.3646666 0.410413,0 0.743746,0.2521333 0.79584,0.3062666 -0.437507,0.027067 -0.664587,0.3188 -0.664587,0.65 0,0.4396 0.333333,0.6521333 0.637493,0.6521333 0.31876,0 0.652094,-0.2 0.652094,-0.6645333 0,-0.7166666 -0.716667,-1.2354666 -1.44792,-1.2354666 -1.010414,0 -1.754174,1.4478666 -2.4854139,4.1582665 -0.039587,0.1458667 -1.84584,6.8166664 -3.3083333,15.5063194 -0.3458399,2.03124 -0.7312533,4.25 -1.1687599,6.097907 -0.2395734,0.96876 -0.85,3.466673 -1.92708,3.466673 -0.4770826,0 -0.7958333,-0.304167 -0.810416,-0.304167"
           style="fill:#ffffff;fill-opacity:1;fill-rule:nonzero;stroke:none;stroke-width:0.133333" />
        <path
           id="path2"
           d="m 244.078,213.281 c 0,3.594 0.203,4.688 7.875,4.688 h 2.391 v 3.094 c -3.485,-0.297 -10.86,-0.297 -14.641,-0.297 -3.797,0 -11.265,0 -14.75,0.297 v -3.094 h 2.391 c 7.672,0 7.875,-1.094 7.875,-4.688 v -23.312 h -29.797 v 23.312 c 0,3.594 0.203,4.688 7.875,4.688 h 2.391 v 3.094 c -3.485,-0.297 -10.86,-0.297 -14.657,-0.297 -3.781,0 -11.25,0 -14.75,0.297 v -3.094 h 2.407 c 7.671,0 7.859,-1.094 7.859,-4.688 v -52.515 c 0,-3.578 -0.188,-4.672 -7.859,-4.672 h -2.407 V 153 c 3.5,0.297 10.875,0.297 14.657,0.297 3.781,0 11.265,0 14.75,-0.297 v 3.094 h -2.391 c -7.672,0 -7.875,1.094 -7.875,4.672 v 26.109 h 29.797 v -26.109 c 0,-3.578 -0.203,-4.672 -7.875,-4.672 h -2.391 V 153 c 3.485,0.297 10.86,0.297 14.641,0.297 3.797,0 11.265,0 14.75,-0.297 v 3.094 h -2.391 c -7.672,0 -7.875,1.094 -7.875,4.672 v 52.515"
           style="fill:#ffffff;fill-opacity:1;fill-rule:nonzero;stroke:none"
           transform="matrix(0.13333333,0,0,-0.13333333,0,30.666667)" />
        <path
           id="path3"
           d="m 274.641,197.047 -13.953,-1.094 v -3.094 c 6.468,0 7.375,-0.593 7.375,-5.484 v -26.797 c 0,-4.484 -1.094,-4.484 -7.782,-4.484 V 153 c 3.203,0.094 8.578,0.297 10.969,0.297 3.484,0 6.969,-0.203 10.359,-0.297 v 3.094 c -6.578,0 -6.968,0.5 -6.968,4.375 z m 0.39,17.328 c 0,3.203 -2.484,5.281 -5.281,5.281 -3.078,0 -5.281,-2.687 -5.281,-5.281 0,-2.687 2.203,-5.281 5.281,-5.281 2.797,0 5.281,2.094 5.281,5.281"
           style="fill:#ffffff;fill-opacity:1;fill-rule:nonzero;stroke:none"
           transform="matrix(0.13333333,0,0,-0.13333333,0,30.666667)" />
        <rect
           id="rect3"
           x="0"
           y="0"
           width="1"
           height="1"
           style="fill:#ffffff;fill-opacity:1;fill-rule:nonzero"
           transform="matrix(29.76,0,0,-0.64,16.170667,16.229333)" />
        <path
           id="path4"
           d="m 192.844,50.7813 c 0,20.3281 -15.047,36.4687 -33.188,36.4687 -17.828,0 -33.078,-15.9375 -33.078,-36.4687 0,-20.4219 15.344,-35.9688 33.078,-35.9688 18.141,0 33.188,15.8438 33.188,35.9688 z m -33.078,-33.375 c -9.563,0 -22.922,8.7656 -22.922,34.7656 0,25.8125 14.547,32.5937 22.812,32.5937 8.672,0 22.922,-7.0781 22.922,-32.5937 0,-26.4063 -13.64,-34.7656 -22.812,-34.7656"
           style="fill:#ffffff;fill-opacity:1;fill-rule:nonzero;stroke:none"
           transform="matrix(0.13333333,0,0,-0.13333333,0,30.666667)" />
        <path
           id="path5"
           d="m 204.578,51.0781 c 0,-20.625 16.141,-36.2656 34.672,-36.2656 16.25,0 26.016,13.8438 26.016,25.4063 0,1 0,1.6875 -1.297,1.6875 -1.094,0 -1.094,-0.5938 -1.188,-1.5938 -0.797,-14.25 -11.468,-22.4219 -22.328,-22.4219 -6.078,0 -25.609,3.3907 -25.609,33.0938 0,29.7969 19.437,33.1719 25.515,33.1719 10.86,0 19.719,-9.0625 21.719,-23.6094 0.203,-1.3906 0.203,-1.6875 1.594,-1.6875 1.594,0 1.594,0.2969 1.594,2.3906 v 23.6094 c 0,1.6875 0,2.3906 -1.094,2.3906 -0.406,0 -0.797,0 -1.594,-1.1875 l -4.984,-7.375 c -3.688,3.5781 -8.766,8.5625 -18.344,8.5625 -18.625,0 -34.672,-15.8437 -34.672,-36.1719"
           style="fill:#ffffff;fill-opacity:1;fill-rule:nonzero;stroke:none"
           transform="matrix(0.13333333,0,0,-0.13333333,0,30.666667)" />
        <path
           id="path6"
           d="m 293.328,52.1719 v 25.8125 c 0,2.2969 0,3.4844 2.188,3.7812 1,0.2032 3.89,0.2032 5.875,0.2032 8.968,0 20.125,-0.3907 20.125,-14.8438 0,-6.875 -2.391,-14.9531 -17.141,-14.9531 z m 21.016,-1.2969 c 9.672,2.3906 17.437,8.4688 17.437,16.25 0,9.5625 -11.359,17.9375 -26,17.9375 h -31.297 v -3.0937 h 2.391 c 7.672,0 7.875,-1.0938 7.875,-4.6875 V 24.7656 c 0,-3.5781 -0.203,-4.6718 -7.875,-4.6718 h -2.391 V 17 c 3.594,0.2969 10.672,0.2969 14.547,0.2969 3.891,0 10.969,0 14.547,-0.2969 v 3.0938 h -2.39 c -7.672,0 -7.86,1.0937 -7.86,4.6718 v 25.2188 h 11.453 c 1.594,0 5.782,0 9.266,-3.3906 3.781,-3.5782 3.781,-6.6719 3.781,-13.3438 0,-6.4844 0,-10.4687 4.094,-14.25 4.078,-3.5937 9.562,-4.1875 12.547,-4.1875 7.781,0 9.469,8.1719 9.469,10.9531 0,0.5938 0,1.7032 -1.297,1.7032 -1.094,0 -1.094,-0.9063 -1.188,-1.5938 C 340.859,18.7969 337.359,17 334.875,17 c -4.891,0 -5.687,5.0781 -7.078,14.3438 l -1.297,7.9843 c -1.797,6.375 -6.672,9.6563 -12.156,11.5469"
           style="fill:#ffffff;fill-opacity:1;fill-rule:nonzero;stroke:none"
           transform="matrix(0.13333333,0,0,-0.13333333,0,30.666667)" />
      </g>
    </g>
  </g>
</svg>
